<svg width="1400" height="900" viewBox="0 0 1400 900" fill="none" xmlns="http://www.w3.org/2000/svg">
  <defs>
    <linearGradient id="bg" x1="0" y1="0" x2="1" y2="1">
      <stop offset="0%" stop-color="#E8F7F0"/>
      <stop offset="100%" stop-color="#F9F2E8"/>
    </linearGradient>
  </defs>
  <rect width="1400" height="900" fill="url(#bg)"/>
  <circle cx="300" cy="250" r="120" fill="#F6A200" opacity="0.2"/>
  <circle cx="1100" cy="200" r="100" fill="#09A46D" opacity="0.2"/>
  <rect x="260" y="320" width="620" height="380" rx="30" fill="#FFFFFF" stroke="#D5D5D5" stroke-width="10"/>
  <path d="M450 470L530 420L610 470L690 420L770 470" stroke="#1A5C3E" stroke-width="18" stroke-linecap="round"/>
  <path d="M430 520L510 470L590 520L670 470L750 520" stroke="#1A5C3E" stroke-width="18" stroke-linecap="round"/>
  <rect x="320" y="360" width="520" height="220" rx="20" fill="#E8F7F0"/>
  <rect x="350" y="390" width="180" height="160" rx="18" fill="#FCB040"/>
  <rect x="560" y="390" width="180" height="160" rx="18" fill="#09A46D"/>
  <rect x="770" y="390" width="180" height="160" rx="18" fill="#E01A4F"/>
  <text x="320" y="620" font-family="Arial, sans-serif" font-size="52" fill="#1A5C3E" font-weight="700">Produit local</text>
  <text x="320" y="690" font-family="Arial, sans-serif" font-size="32" fill="#4F4F4F">Madagascar - marché frais</text>
  <circle cx="240" cy="680" r="18" fill="#E01A4F"/>
  <circle cx="280" cy="720" r="12" fill="#09A46D"/>
  <circle cx="200" cy="730" r="14" fill="#FFC93C"/>
  <rect x="960" y="290" width="320" height="200" rx="30" fill="#FFFFFF" opacity="0.75" />
  <text x="980" y="340" font-family="Arial, sans-serif" font-size="42" fill="#1A5C3E" font-weight="700">Marché</text>
  <text x="980" y="390" font-family="Arial, sans-serif" font-size="22" fill="#4F4F4F">Fruits frais et artisanat</text>
  <rect x="980" y="420" width="120" height="120" rx="20" fill="#09A46D"/>
  <rect x="1110" y="420" width="120" height="120" rx="20" fill="#F6A200"/>
  <rect x="980" y="560" width="250" height="40" rx="20" fill="#1A5C3E"/>
  <text x="995" y="590" font-family="Arial, sans-serif" font-size="20" fill="#FFFFFF">MADAGASCAR</text>
</svg>